<?xml version="1.0" encoding="utf-8"?>
<!-- Generator: Adobe Illustrator 23.0.1, SVG Export Plug-In . SVG Version: 6.00 Build 0)  -->
<svg version="1.0" id="레이어_1" xmlns="http://www.w3.org/2000/svg" xmlns:xlink="http://www.w3.org/1999/xlink" x="0px"
	 y="0px" viewBox="0 0 200 200" style="enable-background:new 0 0 200 200;" xml:space="preserve">
<style type="text/css">
	.st0{fill:#FFFFFF;}
	.st1{fill:none;stroke:#000000;stroke-linecap:round;stroke-linejoin:round;stroke-miterlimit:10;}
	.st2{opacity:0.72;}
	.st3{fill:#339966;}
	.st4{fill:#339966;stroke:#000000;stroke-linecap:round;stroke-linejoin:round;stroke-miterlimit:10;}
</style>
<rect class="st0" width="200" height="200"/>
<line class="st1" x1="58.556" y1="120" x2="69.777" y2="109.528"/>
<g class="st2">
	<path class="st3" d="M71.185,83.106c0,0,17.713,2.952,31.669-0.695c13.955-3.647,13.239,4.193,13.239,4.193l-22.177,22.258
		c-2.754,2.764-8.563,3.626-11.4,0.947L71.124,96.976c-3.832-3.619-3.978-9.669-0.325-13.469L71.185,83.106z"/>
</g>
<path class="st4" d="M70.517,97.717l-3.877,3.627c-0.944,0.883-0.969,2.372-0.055,3.287l7.91,7.91
	c0.884,0.884,2.319,0.88,3.198-0.01l3.494-3.537"/>
<path class="st1" d="M100.963,46.427l31.63,30.956c0.842,0.824,2.188,0.827,3.034,0.005l1.366-1.327
	c0.878-0.853,0.878-2.263,0-3.116l-31.71-30.808c-0.826-0.802-2.133-0.821-2.982-0.043l-1.286,1.179
	C100.096,44.115,100.072,45.555,100.963,46.427z"/>
<path class="st1" d="M124.581,42.322l12.541,11.943c0.828,0.789,2.128,0.797,2.966,0.019l2.049-1.902
	c0.918-0.852,0.923-2.303,0.012-3.162l-12.575-11.853c-0.82-0.773-2.095-0.788-2.932-0.034l-2.015,1.812
	C123.688,39.988,123.667,41.452,124.581,42.322z"/>
<line class="st1" x1="94.716" y1="61.567" x2="102.854" y2="69.999"/>
<line class="st1" x1="118.422" y1="54.01" x2="126.908" y2="45.244"/>
<line class="st1" x1="125.281" y1="61.567" x2="134.341" y2="52.186"/>
<line class="st1" x1="87.464" y1="68.205" x2="95.771" y2="76.801"/>
<path class="st1" d="M104.56,52.556l-33.375,30.55c-4.268,3.907-4.507,10.554-0.53,14.757l9.647,10.195
	c3.86,4.08,10.329,4.159,14.289,0.176l33.532-33.73"/>
<line class="st1" x1="74.28" y1="80.273" x2="82.517" y2="89.424"/>
<line class="st1" x1="80.47" y1="74.607" x2="88.968" y2="83.463"/>
</svg>
