<?xml version="1.0" encoding="utf-8"?>
<!-- Generator: Adobe Illustrator 23.0.1, SVG Export Plug-In . SVG Version: 6.00 Build 0)  -->
<svg version="1.0" id="레이어_1" xmlns="http://www.w3.org/2000/svg" xmlns:xlink="http://www.w3.org/1999/xlink" x="0px"
	 y="0px" viewBox="0 0 200 200" style="enable-background:new 0 0 200 200;" xml:space="preserve">
<style type="text/css">
	.st0{fill:#FFFFFF;}
	.st1{fill:none;stroke:#000000;stroke-linecap:round;stroke-linejoin:round;stroke-miterlimit:10;}
	.st2{opacity:0.72;}
	.st3{fill:#339966;}
</style>
<rect class="st0" width="200" height="200"/>
<path class="st1" d="M93.713,53.772c0,0,1.847,3.46,5.844,3.577c3.997,0.117,6.732-3.74,6.709-3.927"/>
<g class="st2">
	<path class="st3" d="M115.833,42.922c0,0,8.63,6.373,12.57,16.717c5.61,14.727-8.923,44.584-17.339,60.779
		c0,0-1.451,3.482,5.33,1.608c7.521-2.078,7.054-17.58,14.067-25.715s12.021-22.253,7.252-35.998S129.017,42.081,115.833,42.922z"/>
</g>
<path class="st1" d="M83.01,43.164l14.823,1.186c2.368,0.189,4.747,0.169,7.111-0.062l10.48-1.022
	c5.701-0.556,11.365,1.371,15.544,5.289l0.581,0.545c4.98,4.668,7.805,11.19,7.805,18.016v3.214c0,6.454-1.633,12.802-4.747,18.455
	l-7.253,13.166c-0.104,0.189-0.196,0.384-0.274,0.585l-4.684,11.985c-1.007,2.577-2.867,4.732-5.27,6.105l-1.002,0.572
	c-1.169,0.668-2.561,0.83-3.852,0.447l0,0c-1.906-0.565-3.433-1.995-4.121-3.86l-0.841-2.28c-0.636-1.724-1.611-3.303-2.868-4.643
	l-0.769-0.82c-0.975-1.04-2.353-1.608-3.778-1.557l0,0c-1.84,0.066-3.49,1.149-4.281,2.811l-0.379,0.796
	c-0.135,0.284-0.243,0.579-0.322,0.884l-0.111,0.427c-0.7,2.702-2.271,5.098-4.469,6.818h0c-0.6,0.47-1.301,0.794-2.047,0.948
	l-1.996,0.411c-2.014,0.415-4.103-0.211-5.557-1.665l0,0c-0.558-0.558-0.974-1.242-1.214-1.994l-4.803-15.097
	c-0.914-2.873-0.444-1.302-3.864-8.132l-4.611-7.052c-3.667-5.608-5.619-12.163-5.619-18.863V63.39
	c0-5.304,2.107-10.39,5.857-14.141l0,0C70.834,44.897,76.875,42.673,83.01,43.164z"/>
</svg>
