<?xml version="1.0" encoding="utf-8"?>
<!-- Generator: Adobe Illustrator 23.0.1, SVG Export Plug-In . SVG Version: 6.00 Build 0)  -->
<svg version="1.0" id="레이어_1" xmlns="http://www.w3.org/2000/svg" xmlns:xlink="http://www.w3.org/1999/xlink" x="0px"
	 y="0px" viewBox="0 0 200 200" style="enable-background:new 0 0 200 200;" xml:space="preserve">
<style type="text/css">
	.st0{fill:#FFFFFF;}
	.st1{fill:none;stroke:#000000;stroke-linecap:round;stroke-linejoin:round;stroke-miterlimit:10;}
	.st2{opacity:0.54;}
	.st3{fill:#339966;}
</style>
<rect class="st0" width="200" height="200"/>
<polyline class="st1" points="53.435,77.72 100.374,44.433 146.565,78.843 "/>
<path class="st1" d="M61.894,71.721v44.632c0,3.761,3.049,6.81,6.81,6.81h62.719c4.025,0,7.287-3.263,7.287-7.287V72.992"/>
<g class="st2">
	<path class="st3" d="M115.445,95.346H84.789c-1.096,0-1.994-0.897-1.994-1.994v-8.075c0-1.096,0.897-1.994,1.994-1.994h30.656
		c1.096,0,1.994,0.897,1.994,1.994v8.075C117.439,94.449,116.541,95.346,115.445,95.346z"/>
</g>
<g class="st2">
	<path class="st3" d="M106.031,73.987v30.656c0,1.096-0.897,1.994-1.994,1.994h-8.075c-1.096,0-1.994-0.897-1.994-1.994V73.987
		c0-1.096,0.897-1.994,1.994-1.994h8.075C105.134,71.993,106.031,72.89,106.031,73.987z"/>
</g>
<g class="st2">
	<path class="st3" d="M106.031,83.284v21.359c0,1.096-0.897,1.994-1.994,1.994h-8.075c-1.096,0-1.994-0.897-1.994-1.994V83.284
		H106.031z"/>
</g>
</svg>
