<?xml version="1.0" encoding="utf-8"?>
<!-- Generator: Adobe Illustrator 23.0.1, SVG Export Plug-In . SVG Version: 6.00 Build 0)  -->
<svg version="1.0" id="레이어_1" xmlns="http://www.w3.org/2000/svg" xmlns:xlink="http://www.w3.org/1999/xlink" x="0px"
	 y="0px" viewBox="0 0 200 200" style="enable-background:new 0 0 200 200;" xml:space="preserve">
<style type="text/css">
	.st0{fill:#FFFFFF;}
	.st1{fill:none;stroke:#000000;stroke-linecap:round;stroke-linejoin:round;stroke-miterlimit:10;}
	.st2{fill:none;stroke:#339966;stroke-linecap:round;stroke-linejoin:round;stroke-miterlimit:10;}
</style>
<rect class="st0" width="200" height="200"/>
<path class="st1" d="M137,122H64c-6.6,0-12-5.4-12-12V37c0-6.6,5.4-12,12-12h73c6.6,0,12,5.4,12,12v73C149,116.6,143.6,122,137,122z
	"/>
<line class="st2" x1="99.5" y1="34.5" x2="99.5" y2="87.5"/>
<path class="st2" d="M106.095,49.455c0,0,36.017-4.467,24.777-17.441"/>
<path class="st2" d="M106.974,66.351c0,0,36.017-4.467,24.777-17.441"/>
<path class="st2" d="M106.854,83.247c0,0,36.017-4.467,24.777-17.441"/>
<path class="st2" d="M94.281,49.428c0,0-36.025-4.401-24.808-17.396"/>
<path class="st2" d="M93.433,66.327c0,0-36.025-4.401-24.808-17.396"/>
<path class="st2" d="M92.584,83.226c0,0-36.025-4.401-24.808-17.396"/>
<path class="st2" d="M62.22,105.245c0,0,9.495-14.692,15.525-15.491s13.659,10.461,21.654,10.728
	c7.996,0.267,13.359-10.561,20.389-11.327c7.029-0.766,14.725,8.495,17.59,12.593"/>
</svg>
