<?xml version="1.0" encoding="utf-8"?>
<!-- Generator: Adobe Illustrator 23.0.1, SVG Export Plug-In . SVG Version: 6.00 Build 0)  -->
<svg version="1.0" id="레이어_1" xmlns="http://www.w3.org/2000/svg" xmlns:xlink="http://www.w3.org/1999/xlink" x="0px"
	 y="0px" viewBox="0 0 200 200" style="enable-background:new 0 0 200 200;" xml:space="preserve">
<style type="text/css">
	.st0{fill:#FFFFFF;}
	.st1{opacity:0.72;}
	.st2{fill:#339966;}
	.st3{fill:none;stroke:#000000;stroke-linecap:round;stroke-linejoin:round;stroke-miterlimit:10;}
</style>
<rect class="st0" width="200" height="200"/>
<g>
	<g class="st1">
		<path class="st2" d="M120.125,52.496c-0.138-0.03-0.223,0.154-0.105,0.23c2.034,1.299,8.126,5.846,7.537,13.373
			c-0.685,8.745-3.972,15.772-11.99,17.811c-0.4,0.102-0.625,0.524-0.465,0.905l1.92,4.57c0.235,0.558,1.032,0.54,1.241-0.028
			l1.584-4.309c0.12-0.325,0.468-0.494,0.804-0.406c0.979,0.254,3.145,0.42,6.056-1.685c2.89-2.09,2.952-4.254,2.754-5.315
			c-0.064-0.341,0.161-0.66,0.498-0.744c1.044-0.26,2.918-1.351,3.129-5.813c0.002-0.035,0.001-0.067-0.003-0.102
			c-0.045-0.373-0.38-2.73-1.764-3.863c-0.212-0.174-0.274-0.468-0.179-0.725C131.921,64.284,134.179,55.606,120.125,52.496z"/>
	</g>
	<path class="st3" d="M108.593,62.811c0,0,2.881-9.059,9.405-10.084c5.537-0.869,9.23,1.998,10.27,3.108
		c1.543,1.646,4.621,5.179,2.844,11.196c0,0,2.588,1.242,2.134,4.845s-3.74,5.44-3.74,5.44s-0.152,3.569-2.799,5.641
		c-2.647,2.072-6.633,1.476-6.633,1.476l-1.992,5.418c-0.144,0.392-0.694,0.404-0.855,0.019l-2.429-5.783
		c0,0-3.971-0.764-5.881-2.819c-1.728-1.859-1.227-2.542-1.227-2.542s-3.165,0.279-5.848-0.707
		c-2.682-0.986-3.221-3.069-3.221-3.069s-2.182,1.889-5.996-1.045c-3.353-2.579-2.053-4.67-2.053-4.67s-3.584-2.478-2.558-6.451
		s3.605-6.65,7.369-5.845"/>
	<path class="st3" d="M92.624,56.907c0,0,0.487-6.056,4.653-7.134c4.166-1.078,6.372,0.023,7.683,0.795c0,0,3.244-3.302,7.17-2.149
		c3.926,1.154,5.393,3.868,5.393,3.868"/>
	<path class="st3" d="M107.238,57.284c0,0,1.672-0.197,3.51,0.451"/>
	<path class="st3" d="M127.151,72.472c0,0,0.564-1.254-0.024-3.636"/>
	<path class="st3" d="M108.407,73.876c0,0-2.721,5.493,1.71,8.427"/>
	<path class="st3" d="M98.627,71.585c0,0-1.112,2.781,1.726,5.71"/>
	<path class="st3" d="M123.342,70.377c0,0,5.86,1.493,6.164,6.938"/>
</g>
<path class="st3" d="M92.624,121.667c0,0,6.189-16.302-9.415-12.993c-14.754,3.128-14.1-4.504-13.839-7.543
	c0.223-2.59,3.483-8.962-7.44-9.727c-1.055-0.074-1.672-1.225-1.101-2.115c2.27-3.537,6.712-10.674,7.232-13.143
	c0.701-3.334-4.067-16.896,1.262-23.58s15.378-19.026,37.914-16.221s31.653,17.153,32.775,34.033
	c1.122,16.88-13.589,32.729-13.589,32.729s-8.529,5.751-8.901,17.532"/>
</svg>
