<?xml version="1.0" encoding="utf-8"?>
<!-- Generator: Adobe Illustrator 23.0.1, SVG Export Plug-In . SVG Version: 6.00 Build 0)  -->
<svg version="1.0" id="레이어_1" xmlns="http://www.w3.org/2000/svg" xmlns:xlink="http://www.w3.org/1999/xlink" x="0px"
	 y="0px" viewBox="0 0 200 200" style="enable-background:new 0 0 200 200;" xml:space="preserve">
<style type="text/css">
	.st0{fill:#FFFFFF;}
	.st1{fill:#339966;stroke:#000000;stroke-linecap:round;stroke-linejoin:round;stroke-miterlimit:10;}
	.st2{fill:none;stroke:#000000;stroke-linecap:round;stroke-linejoin:round;stroke-miterlimit:10;}
</style>
<rect class="st0" width="200" height="200"/>
<path class="st1" d="M113.915,91.664c-4.674,0-8.463-3.789-8.463-8.463c0-4.674,3.789-8.463,8.463-8.463
	c0.261,0,0.506,0.054,0.761,0.077c-3.461-2.745-7.828-4.395-12.588-4.395c-11.206,0-20.29,9.084-20.29,20.29S90.881,111,102.087,111
	s20.29-9.084,20.29-20.29c0-1.586-0.2-3.122-0.544-4.603C120.645,89.342,117.563,91.664,113.915,91.664z"/>
<ellipse class="st2" cx="100.934" cy="92.297" rx="41.506" ry="30.224"/>
<line class="st2" x1="68.856" y1="64.775" x2="72.299" y2="70.419"/>
<line class="st2" x1="83.162" y1="58.324" x2="85.132" y2="64.344"/>
<line class="st2" x1="100.554" y1="54.397" x2="100.554" y2="61.334"/>
<line class="st2" x1="118.647" y1="57.693" x2="117.946" y2="63.864"/>
<line class="st2" x1="133.164" y1="65.056" x2="129.412" y2="69.93"/>
</svg>
