<?xml version="1.0" encoding="utf-8"?>
<!-- Generator: Adobe Illustrator 23.0.1, SVG Export Plug-In . SVG Version: 6.00 Build 0)  -->
<svg version="1.0" id="레이어_1" xmlns="http://www.w3.org/2000/svg" xmlns:xlink="http://www.w3.org/1999/xlink" x="0px"
	 y="0px" viewBox="0 0 200 200" style="enable-background:new 0 0 200 200;" xml:space="preserve">
<style type="text/css">
	.st0{fill:#FFFFFF;}
	.st1{fill:none;stroke:#000000;stroke-linecap:round;stroke-linejoin:round;stroke-miterlimit:10;}
	.st2{fill:#339966;stroke:#000000;stroke-linecap:round;stroke-linejoin:round;stroke-miterlimit:10;}
</style>
<rect class="st0" width="200" height="200"/>
<path class="st1" d="M60.69,56.011c0,0-2.614,9.165-4.578,17.44c-1.942,8.182,1.963,28.814,20.355,32.802
	c0.415,0.09,0.848,0.13,1.273,0.13l37.619,0c1.337,0,2.646-0.322,3.837-0.931c5.074-2.594,18.207-10.725,19.336-25.858
	c0,0,6.934-4.667,8.97-12.051c0.103-0.373,0.121-0.771,0.072-1.155l-0.467-3.659c-0.126-0.989-1.311-1.427-2.045-0.752
	c-1.496,1.375-3.526,3.252-4.286,4.012c-1.262,1.262-3.366,3.366-5.61-0.14s-3.927-7.013-5.47-8.556
	C128.153,55.751,60.69,56.011,60.69,56.011z"/>
<path class="st2" d="M61.812,47.896h30.015c0,0,1.403-3.366,4.208-3.506c2.805-0.14,4.264,1.262,4.797,3.506h29.846
	c0,0,4.067-0.14,4.067,4.067s-4.348,4.047-4.348,4.047H60.69c0,0-2.665,0.16-2.665-3.767S61.812,47.896,61.812,47.896z"/>
<path class="st2" d="M82.009,110.03c0,0-4.067,3.787-4.208,6.732c-0.14,2.945,2.525,3.647,4.208,3.647s4.067-1.262,4.067-4.067
	S82.009,110.03,82.009,110.03z"/>
<path class="st2" d="M96.458,110.591c0,0-4.067,3.787-4.208,6.732c-0.14,2.945,2.525,3.647,4.208,3.647s4.067-1.262,4.067-4.067
	S96.458,110.591,96.458,110.591z"/>
<path class="st2" d="M111.323,110.03c0,0-4.067,3.787-4.208,6.732c-0.14,2.945,2.525,3.647,4.208,3.647
	c1.683,0,4.067-1.262,4.067-4.067S111.323,110.03,111.323,110.03z"/>
</svg>
