<?xml version="1.0" encoding="utf-8"?>
<!-- Generator: Adobe Illustrator 23.0.1, SVG Export Plug-In . SVG Version: 6.00 Build 0)  -->
<svg version="1.0" id="레이어_1" xmlns="http://www.w3.org/2000/svg" xmlns:xlink="http://www.w3.org/1999/xlink" x="0px"
	 y="0px" viewBox="0 0 200 200" style="enable-background:new 0 0 200 200;" xml:space="preserve">
<style type="text/css">
	.st0{fill:#FFFFFF;}
	.st1{fill:#339966;stroke:#000000;stroke-linecap:round;stroke-linejoin:round;stroke-miterlimit:10;}
	.st2{fill:none;stroke:#000000;stroke-linecap:round;stroke-linejoin:round;stroke-miterlimit:10;}
</style>
<rect class="st0" width="200" height="200"/>
<path class="st1" d="M119.474,85.287c-5.61-10.379-11.221-14.867-15.989-18.514c-4.144-3.169-9.767-3.588-11.169-6.895
	c-4.496,2.507-8.091,6.418-10.215,11.139c4.891-1.504,11.037-0.729,13.997,2.769c4.114,4.862,2.221,7.036,5.587,10.402
	c3.366,3.366,6.382,0.444,10.683,4.184c4.543,3.95,3.835,11.488,3.111,13.54c4.099-2.242,7.468-5.645,9.673-9.767
	C123.819,91.701,122.026,90.008,119.474,85.287z"/>
<path class="st2" d="M59.457,109.167c0,0,11.595-8.976,12.904-19.262s0.374-11.969,4.862-16.457c4.488-4.488,14.774-4.862,18.888,0
	c4.114,4.862,2.221,7.036,5.587,10.402c3.366,3.366,6.382,0.444,10.683,4.184c4.794,4.169,3.74,12.343,2.992,13.839
	s-4.862,9.724-14.774,9.724s-12.53,0.561-16.27,3.74c-3.74,3.179-9.537,7.106-9.537,7.106"/>
<path class="st2" d="M128.463,40.348c0,0-8.976,8.976-19.636,11.501c-10.659,2.525-16.831,1.029-16.831,5.984
	s6.732,4.956,11.501,8.602c4.769,3.647,10.379,8.135,15.989,18.514c5.61,10.379,7.574,6.193,8.976,6.042
	c1.403-0.151,2.525-6.603,3.086-13.055c0.561-6.452,3.086-14.306,10.379-23.002"/>
</svg>
