<?xml version="1.0" encoding="utf-8"?>
<!-- Generator: Adobe Illustrator 23.0.1, SVG Export Plug-In . SVG Version: 6.00 Build 0)  -->
<svg version="1.0" id="레이어_1" xmlns="http://www.w3.org/2000/svg" xmlns:xlink="http://www.w3.org/1999/xlink" x="0px"
	 y="0px" viewBox="0 0 200 200" style="enable-background:new 0 0 200 200;" xml:space="preserve">
<style type="text/css">
	.st0{fill:#FFFFFF;}
	.st1{fill:#66CC99;}
	.st2{opacity:0.72;}
	.st3{fill:#339966;}
	.st4{fill:none;stroke:#000000;stroke-linecap:round;stroke-linejoin:round;stroke-miterlimit:10;}
</style>
<rect class="st0" width="200" height="200"/>
<polygon class="st1" points="100.41,122.016 100.417,121.993 100.395,121.961 "/>
<g class="st2">
	<polygon class="st3" points="144.755,62.267 131.19,41.79 119.789,41.79 132.88,62.267 	"/>
</g>
<g class="st2">
	<polygon class="st3" points="144.755,62.267 132.88,62.267 100.417,121.993 100.434,122.016 	"/>
</g>
<polygon class="st4" points="57.936,62.267 100.395,121.961 83.279,62.267 "/>
<polygon class="st4" points="144.755,62.267 118.109,62.267 100.417,121.993 100.434,122.016 "/>
<polygon class="st4" points="91.27,41.79 70.98,41.79 57.936,62.267 83.279,62.267 "/>
<polygon class="st4" points="144.755,62.267 130.869,41.79 109.457,41.79 118.109,62.267 "/>
<polygon class="st4" points="83.279,62.267 100.395,121.961 100.417,121.993 118.109,62.267 "/>
<polygon class="st4" points="118.109,62.267 109.457,41.79 91.27,41.79 83.279,62.267 "/>
</svg>
