<?xml version="1.0" encoding="utf-8"?>
<!-- Generator: Adobe Illustrator 23.0.1, SVG Export Plug-In . SVG Version: 6.00 Build 0)  -->
<svg version="1.0" id="레이어_1" xmlns="http://www.w3.org/2000/svg" xmlns:xlink="http://www.w3.org/1999/xlink" x="0px"
	 y="0px" viewBox="0 0 200 200" style="enable-background:new 0 0 200 200;" xml:space="preserve">
<style type="text/css">
	.st0{fill:#FFFFFF;}
	.st1{fill:#339966;stroke:#000000;stroke-linecap:round;stroke-linejoin:round;stroke-miterlimit:10;}
	.st2{fill:none;stroke:#000000;stroke-linecap:round;stroke-linejoin:round;stroke-miterlimit:10;}
</style>
<rect class="st0" width="200" height="200"/>
<path class="st1" d="M67.473,48.947l20.522-5.424c1.481-0.391,3.009,0.442,3.481,1.899l0.463,1.428
	c0.51,1.573-0.404,3.252-2.002,3.678l-20.474,5.45c-1.456,0.387-2.964-0.41-3.464-1.831l-0.511-1.454
	C64.93,51.104,65.845,49.377,67.473,48.947z"/>
<path class="st1" d="M102.976,38.199v2.522c0,1.886,1.529,3.414,3.414,3.414h20.662c1.886,0,3.414-1.529,3.414-3.414v-2.522
	c0-1.886-1.529-3.414-3.414-3.414H106.39C104.505,34.785,102.976,36.313,102.976,38.199z"/>
<path class="st1" d="M91.685,117.905l3.135-1.254c1.385-0.554,2.953,0.148,3.463,1.55l0,0c0.486,1.337-0.174,2.819-1.493,3.352
	l-3.13,1.264c-1.301,0.525-2.785-0.058-3.38-1.328l-0.005-0.01C89.63,120.103,90.275,118.469,91.685,117.905z"/>
<path class="st1" d="M114.875,111h3.692c1.631,0,2.953,1.322,2.953,2.953v0c0,1.631-1.322,2.953-2.953,2.953h-3.692
	c-1.631,0-2.953-1.322-2.953-2.953v0C111.922,112.323,113.244,111,114.875,111z"/>
<line class="st2" x1="93.108" y1="116.426" x2="89.181" y2="95.481"/>
<line class="st2" x1="117.043" y1="90.326" x2="117.043" y2="110.897"/>
<path class="st2" d="M108.212,44.135v37.776c0,0,1.122,8.228,8.509,8.415c7.387,0.187,8.883-7.293,9.07-8.789
	c0.187-1.496,0-37.402,0-37.402"/>
<line class="st2" x1="108.212" y1="64.332" x2="125.866" y2="64.332"/>
<path class="st2" d="M72.307,56.665l8.415,34.971c0,0,3.366,5.049,9.163,3.366c5.797-1.683,5.797-8.976,5.423-11.22
	s-7.48-32.691-7.48-32.691"/>
<line class="st2" x1="77.188" y1="76.947" x2="92.878" y2="72.887"/>
</svg>
