<?xml version="1.0" encoding="utf-8"?>
<!-- Generator: Adobe Illustrator 23.0.1, SVG Export Plug-In . SVG Version: 6.00 Build 0)  -->
<svg version="1.0" id="레이어_1" xmlns="http://www.w3.org/2000/svg" xmlns:xlink="http://www.w3.org/1999/xlink" x="0px"
	 y="0px" viewBox="0 0 200 200" style="enable-background:new 0 0 200 200;" xml:space="preserve">
<style type="text/css">
	.st0{fill:#FFFFFF;}
	.st1{fill:#339966;stroke:#000000;stroke-linecap:round;stroke-linejoin:round;stroke-miterlimit:10;}
	.st2{fill:none;stroke:#000000;stroke-linecap:round;stroke-linejoin:round;stroke-miterlimit:10;}
</style>
<rect class="st0" width="200" height="200"/>
<path class="st1" d="M86.483,92.721l8.586,8.689c0.822,0.832,2.165,0.836,2.992,0.009L136.14,63.34
	c3.083-3.083,3.083-8.082,0-11.165l0,0c-2.672-2.672-6.983-2.735-9.733-0.144l-39.87,37.581
	C85.65,90.45,85.625,91.853,86.483,92.721z"/>
<path class="st2" d="M87.677,93.835L62.843,118.01c-0.478,0.465-0.359,1.261,0.242,1.549c2.618,1.256,9.334,3.407,17.065-2.473
	c9.958-7.574,13.451-17.161,13.451-17.161"/>
</svg>
