<?xml version="1.0" encoding="utf-8"?>
<!-- Generator: Adobe Illustrator 23.0.1, SVG Export Plug-In . SVG Version: 6.00 Build 0)  -->
<svg version="1.0" id="레이어_1" xmlns="http://www.w3.org/2000/svg" xmlns:xlink="http://www.w3.org/1999/xlink" x="0px"
	 y="0px" viewBox="0 0 200 200" style="enable-background:new 0 0 200 200;" xml:space="preserve">
<style type="text/css">
	.st0{fill:#FFFFFF;}
	.st1{fill:#339966;}
	.st2{fill:none;stroke:#000000;stroke-linecap:round;stroke-linejoin:round;stroke-miterlimit:10;}
</style>
<rect class="st0" width="200" height="200"/>
<g>
	<path class="st1" d="M71.994,125.386c-3.165,0-6.007-0.465-7.604-1.242c-2.587-1.261-7.506-5.442-9.528-13.117
		c-1.877-7.126-1.601-19.277,10.377-36.698c0.097-0.183,6.312-12.378,15.681-12.378c1.216,0,2.452,0.207,3.674,0.614
		c6.471,2.157,6.167,9.207,5.748,18.964c-0.321,7.46-0.686,15.917,1.902,24.542c1.447,4.822,0.972,8.891-1.412,12.094
		C86.869,123.488,78.502,125.386,71.994,125.386z"/>
	<path d="M80.921,61.45v1h0c1.161,0,2.344,0.198,3.515,0.588c6.113,2.038,5.817,8.929,5.406,18.468
		c-0.323,7.5-0.689,16.001,1.923,24.707c1.398,4.662,0.95,8.582-1.334,11.651c-2.525,3.394-8.695,7.021-18.436,7.021
		c-3.092,0-5.853-0.445-7.385-1.192c-2.338-1.139-7.284-5.279-9.264-12.795c-3.353-12.727,3.753-26.758,10.305-36.288
		c0.026-0.038,0.05-0.078,0.07-0.119c0.06-0.12,6.127-12.041,15.199-12.042L80.921,61.45 M80.919,61.45
		c-9.795,0.001-16.094,12.595-16.094,12.595c-21.918,31.881-6.32,47.788-0.655,50.548c1.65,0.804,4.511,1.293,7.823,1.293
		c10.415,0,25.264-4.841,20.728-19.959C86.744,86,96.707,66.075,84.752,62.09C83.423,61.647,82.144,61.45,80.919,61.45L80.919,61.45
		z"/>
</g>
<g>
	<path d="M119.319,62.45c9.055,0,15.139,11.922,15.199,12.043c0.021,0.041,0.044,0.081,0.07,0.119
		c13.006,18.918,12.876,31.421,10.477,38.579c-2.107,6.287-6.139,9.107-7.977,9.72c-1.641,0.547-5.012,1.099-8.842,1.099
		c-4.387,0-12.405-0.748-16.808-5.759c-2.608-2.968-3.594-7.071-2.93-12.195c0.917-7.075,0.747-14.007,0.598-20.123
		c-0.291-11.897-0.501-20.493,6.697-22.893C116.975,62.648,118.158,62.45,119.319,62.45 M119.319,61.45
		c-1.225,0-2.503,0.197-3.832,0.64c-11.955,3.985-5.297,23.206-7.97,43.836c-2.02,15.59,10.932,19.083,20.73,19.083
		c3.977,0,7.433-0.575,9.159-1.15c5.978-1.993,19.926-17.933-1.993-49.814C135.413,74.045,129.115,61.45,119.319,61.45
		L119.319,61.45z"/>
</g>
<path class="st2" d="M90.643,87.233c0,0,8.056-5.218,10.049-7.211c0,0,3.985,5.978,7.97,7.97"/>
<line class="st2" x1="100.692" y1="54.12" x2="100.692" y2="80.023"/>
</svg>
