<?xml version="1.0" encoding="utf-8"?>
<!-- Generator: Adobe Illustrator 23.0.1, SVG Export Plug-In . SVG Version: 6.00 Build 0)  -->
<svg version="1.0" id="레이어_1" xmlns="http://www.w3.org/2000/svg" xmlns:xlink="http://www.w3.org/1999/xlink" x="0px"
	 y="0px" viewBox="0 0 200 200" style="enable-background:new 0 0 200 200;" xml:space="preserve">
<style type="text/css">
	.st0{fill:#FFFFFF;}
	.st1{fill:#339966;}
	.st2{fill:none;stroke:#000000;stroke-linecap:round;stroke-linejoin:round;stroke-miterlimit:10;}
	.st3{fill:#339966;stroke:#000000;stroke-linecap:round;stroke-linejoin:round;stroke-miterlimit:10;}
</style>
<rect class="st0" width="200" height="200"/>
<g>
	<path class="st1" d="M68.512,78.167c-3.064,0-5.944-1.353-7.9-3.711c-1.956-2.358-2.754-5.438-2.188-8.449l0.358-1.906
		c0.446-2.373,0.469-4.783,0.07-7.163l-0.576-3.44c-0.536-3.197,0.358-6.45,2.452-8.924c2.094-2.474,5.155-3.894,8.396-3.894
		c3.048,0,5.926,1.334,7.896,3.66c1.97,2.326,2.812,5.384,2.31,8.39l-0.583,3.494c-0.533,3.198-0.486,6.43,0.142,9.608
		c0.601,3.045-0.184,6.166-2.155,8.563c-1.97,2.397-4.88,3.772-7.983,3.772H68.512z"/>
	<path d="M69.124,41.179c2.901,0,5.639,1.269,7.514,3.483c1.875,2.213,2.676,5.124,2.198,7.985l-0.583,3.493
		c-0.543,3.256-0.495,6.549,0.144,9.788c0.572,2.897-0.176,5.867-2.051,8.148c-1.875,2.281-4.644,3.59-7.597,3.59h-0.238
		c-2.915,0-5.654-1.287-7.516-3.53c-1.861-2.243-2.62-5.173-2.082-8.038l0.358-1.905c0.456-2.43,0.481-4.899,0.072-7.338
		l-0.576-3.44c-0.511-3.052,0.342-6.157,2.341-8.519C63.108,42.534,66.03,41.179,69.124,41.179 M69.124,40.179L69.124,40.179
		c-7.11,0-12.517,6.388-11.342,13.4l0.576,3.44c0.388,2.315,0.365,4.681-0.069,6.989l-0.358,1.905
		c-1.244,6.626,3.838,12.753,10.58,12.753h0.238c6.826,0,11.951-6.235,10.629-12.932l0,0c-0.614-3.109-0.661-6.304-0.139-9.43
		l0.583-3.493C80.926,46.199,75.828,40.179,69.124,40.179L69.124,40.179z"/>
</g>
<g>
	<path class="st1" d="M131.918,78.875c-3.064,0-5.944-1.353-7.9-3.71c-1.957-2.358-2.755-5.438-2.189-8.45l0.358-1.905
		c0.445-2.373,0.469-4.783,0.07-7.163l-0.576-3.44c-0.536-3.197,0.358-6.45,2.452-8.925c2.095-2.474,5.155-3.893,8.396-3.893
		c3.048,0,5.926,1.334,7.896,3.66c1.97,2.326,2.812,5.384,2.31,8.39l-0.584,3.494c-0.533,3.198-0.485,6.431,0.143,9.608
		c0.601,3.045-0.186,6.166-2.156,8.563c-1.97,2.397-4.88,3.772-7.982,3.772H131.918z"/>
	<path d="M132.53,41.888c2.901,0,5.639,1.269,7.514,3.483s2.676,5.124,2.198,7.985l-0.583,3.493
		c-0.543,3.256-0.495,6.549,0.144,9.788c0.572,2.897-0.176,5.867-2.051,8.148c-1.875,2.281-4.644,3.59-7.597,3.59h-0.238
		c-2.915,0-5.654-1.287-7.515-3.53c-1.861-2.243-2.62-5.173-2.082-8.038l0.358-1.905c0.456-2.43,0.481-4.899,0.072-7.338
		l-0.576-3.44c-0.511-3.052,0.342-6.157,2.341-8.519C126.514,43.242,129.435,41.888,132.53,41.888 M132.53,40.888L132.53,40.888
		c-7.11,0-12.517,6.388-11.342,13.4l0.576,3.44c0.388,2.315,0.365,4.681-0.069,6.989l-0.358,1.905
		c-1.244,6.626,3.838,12.753,10.58,12.753h0.238c6.826,0,11.951-6.235,10.629-12.932v0c-0.614-3.109-0.661-6.304-0.139-9.43
		l0.583-3.493C144.332,46.908,139.233,40.888,132.53,40.888L132.53,40.888z"/>
</g>
<path class="st2" d="M78.91,59.423l6.786-0.08c5.845,0,10.583,4.62,10.583,10.32v0c0,4.965-2.023,9.727-5.623,13.238l-2.498,2.436
	c-1.687,1.645-2.634,3.876-2.634,6.202v0c0,1.12,0.456,2.194,1.269,2.987l2.006,1.956"/>
<path class="st2" d="M122.746,59.423l-6.786-0.08c-5.845,0-10.583,4.62-10.583,10.32v0c0,4.965,2.023,9.727,5.623,13.238
	l2.498,2.436c1.687,1.645,2.634,3.876,2.634,6.202v0c0,1.12-0.456,2.194-1.269,2.987l-2.006,1.956"/>
<path class="st3" d="M93.031,94.901h15.771c3.857,0,6.983,3.108,6.983,6.942c0,5.084-2.612,9.816-6.925,12.548l-5.978,3.097
	c-1.614,1.022-2.525,5.563-2.525,5.563s-1.117-3.61-1.982-4.922c-0.16-0.243-0.387-0.424-0.641-0.564l-5.936-3.251
	c-3.949-2.697-6.308-7.154-6.308-11.917C85.491,98.257,88.867,94.901,93.031,94.901z"/>
</svg>
