<?xml version="1.0" encoding="utf-8"?>
<!-- Generator: Adobe Illustrator 23.0.1, SVG Export Plug-In . SVG Version: 6.00 Build 0)  -->
<svg version="1.0" id="레이어_1" xmlns="http://www.w3.org/2000/svg" xmlns:xlink="http://www.w3.org/1999/xlink" x="0px"
	 y="0px" viewBox="0 0 200 200" style="enable-background:new 0 0 200 200;" xml:space="preserve">
<style type="text/css">
	.st0{fill:#FFFFFF;}
	.st1{fill:none;stroke:#000000;stroke-linecap:round;stroke-linejoin:round;stroke-miterlimit:10;}
	.st2{fill:#339966;}
</style>
<rect class="st0" width="200" height="200"/>
<circle class="st1" cx="90.65" cy="48.46" r="9.911"/>
<g>
	<path class="st2" d="M109.813,113.74c-1.875-1.549-11.338-9.408-12.779-11.388c-1.525-2.097-1.9-6.541,0.954-9.013
		c1.117-0.968,2.343-1.459,3.646-1.459c2.205,0,4.472,1.407,6.555,4.068c0.095,0.121,0.24,0.192,0.394,0.192
		c0.003,0,0.005,0,0.008,0c0.156-0.002,0.303-0.078,0.396-0.205c0.03-0.041,3.044-4.091,6.635-4.091c1.616,0,3.141,0.831,4.532,2.47
		c0.856,1.01,1.21,2.206,1.081,3.657C120.688,104.101,111.627,112.18,109.813,113.74z"/>
	<path d="M115.62,92.344L115.62,92.344c1.462,0,2.858,0.772,4.15,2.294c0.765,0.902,1.081,1.977,0.964,3.288
		c-0.501,5.645-8.597,13.115-10.93,15.159c-3.562-2.945-11.156-9.362-12.367-11.027c-1.412-1.942-1.762-6.055,0.877-8.341
		c1.023-0.887,2.14-1.337,3.318-1.337c2.046,0,4.176,1.34,6.161,3.876c0.19,0.242,0.48,0.384,0.787,0.384c0.005,0,0.011,0,0.016,0
		c0.313-0.005,0.606-0.157,0.791-0.409C109.417,96.191,112.271,92.344,115.62,92.344 M115.62,91.344
		c-3.895,0-7.039,4.296-7.039,4.296c-2.272-2.903-4.698-4.26-6.948-4.26c-1.423,0-2.776,0.543-3.973,1.581
		c-3.091,2.679-2.679,7.418-1.03,9.685c1.649,2.267,13.188,11.746,13.188,11.746s16.485-13.6,10.715-20.401
		C118.877,92.039,117.188,91.344,115.62,91.344L115.62,91.344z"/>
</g>
<path class="st1" d="M94.299,123h19.267c12.208,0,22.105-9.897,22.105-22.105v0c0-11.03-8.942-19.972-19.972-19.972h-1.908v0
	c0-10.999-8.917-19.916-19.916-19.916h-1.717c-11.91,0-21.566,9.655-21.566,21.566v16.721C70.592,112.386,81.206,123,94.299,123z"/>
</svg>
