<?xml version="1.0" encoding="utf-8"?>
<!-- Generator: Adobe Illustrator 23.0.1, SVG Export Plug-In . SVG Version: 6.00 Build 0)  -->
<svg version="1.0" id="레이어_1" xmlns="http://www.w3.org/2000/svg" xmlns:xlink="http://www.w3.org/1999/xlink" x="0px"
	 y="0px" viewBox="0 0 200 200" style="enable-background:new 0 0 200 200;" xml:space="preserve">
<style type="text/css">
	.st0{fill:#FFFFFF;}
	.st1{fill:none;stroke:#000000;stroke-linecap:round;stroke-linejoin:round;stroke-miterlimit:10;}
	.st2{fill:#339966;stroke:#000000;stroke-linecap:round;stroke-linejoin:round;stroke-miterlimit:10;}
</style>
<rect class="st0" width="200" height="200"/>
<path class="st1" d="M100.619,98.278c0,0,1.87-24.872,27.677-18.14C128.296,80.138,129.044,108.75,100.619,98.278z"/>
<path class="st1" d="M73.128,89.782c0,0-2.244,26.074,25.994,19.716C99.123,109.498,102.489,84.626,73.128,89.782z"/>
<line class="st2" x1="100.619" y1="76.024" x2="100.619" y2="124.646"/>
<path class="st2" d="M100.619,43.297l3.922-3.348c2.417-2.064,5.491-3.197,8.67-3.197h0c2.49,0,4.894,0.912,6.758,2.563l0,0
	c2.358,2.089,3.901,4.945,4.356,8.062v0c0.392,2.69-0.119,5.434-1.454,7.802l-0.718,1.274c-1.989,3.53-4.726,6.582-8.019,8.943
	l-13.515,9.693L85.319,62.977c-1.761-1.394-3.333-3.014-4.674-4.816l-1.253-1.683c-1.76-2.365-2.711-5.235-2.711-8.184v0
	c0-2.601,1.033-5.095,2.872-6.933l0.168-0.168c1.683-1.683,3.783-2.889,6.085-3.495l0.295-0.078
	c2.162-0.569,4.433-0.575,6.598-0.019h0c2.121,0.545,4.048,1.67,5.565,3.249L100.619,43.297z"/>
</svg>
