<?xml version="1.0" encoding="utf-8"?>
<!-- Generator: Adobe Illustrator 23.0.1, SVG Export Plug-In . SVG Version: 6.00 Build 0)  -->
<svg version="1.0" id="레이어_1" xmlns="http://www.w3.org/2000/svg" xmlns:xlink="http://www.w3.org/1999/xlink" x="0px"
	 y="0px" viewBox="0 0 200 200" style="enable-background:new 0 0 200 200;" xml:space="preserve">
<style type="text/css">
	.st0{fill:#FFFFFF;}
	.st1{opacity:0.72;}
	.st2{fill:#339966;}
	.st3{fill:none;stroke:#000000;stroke-linecap:round;stroke-linejoin:round;stroke-miterlimit:10;}
</style>
<rect class="st0" width="200" height="200"/>
<g class="st1">
	<path class="st2" d="M108.413,46.153c-0.288,0.039-0.323,0.457-0.039,0.519c4.858,1.067,19.879,5.53,24.092,20.51
		c4.895,17.405,3.536,33.337-10.526,42.984c-0.702,0.481-0.836,1.459-0.256,2.082l6.965,7.476c0.851,0.913,2.38,0.311,2.38-0.937
		v-9.463c0-0.715,0.554-1.288,1.265-1.358c2.075-0.204,6.383-1.424,10.516-7.567c4.104-6.1,2.685-10.33,1.547-12.242
		c-0.365-0.614-0.157-1.392,0.434-1.793c1.835-1.246,4.684-4.688,1.919-13.47c-0.022-0.069-0.046-0.13-0.079-0.194
		c-0.353-0.689-2.677-5.01-6.16-6.218c-0.534-0.185-0.862-0.71-0.862-1.275C139.617,60.568,137.812,42.175,108.413,46.153z"/>
</g>
<path class="st3" d="M93.441,74.311c0,0-0.87-19.575,11.021-26.197c10.093-5.62,19.276-2.701,22.079-1.293
	c4.156,2.087,12.623,6.732,13.465,19.636c0,0,5.891,0.561,7.574,7.854c1.683,7.293-3.366,13.184-3.366,13.184
	s2.244,7.013-1.403,12.904c-3.647,5.891-11.782,7.574-11.782,7.574v11.899c0,0.86-1.054,1.276-1.641,0.646l-8.813-9.459
	c0,0-8.225,1.346-13.382-1.271c-4.664-2.367-4.181-4.045-4.181-4.045s-5.925,2.791-11.816,2.791s-8.415-3.647-8.415-3.647
	s-2.878,5.207-12.343,2.244c-8.321-2.604-7.293-7.574-7.293-7.574s-8.696-2.244-9.537-10.659s2.244-15.428,10.098-16.55"/>
<path class="st3" d="M58.349,74.25c0,0-3.366-12.062,3.927-17.111s12.343-4.488,15.428-3.927c0,0,3.927-8.696,12.343-9.257
	s13.184,3.647,13.184,3.647"/>
<path class="st3" d="M86.888,64.584c0,0,3.094-1.57,7.11-1.623"/>
<path class="st3" d="M136.214,79.801c0,0,0.2-2.828-2.633-7.018"/>
<path class="st3" d="M100.951,95.849c0,0-1.356,12.561,9.303,15.086"/>
<path class="st3" d="M80.402,98.374c0,0-0.173,6.171,7.401,9.818"/>
<path class="st3" d="M127.355,78.457c0,0,12.399-1.281,16.859,9.037"/>
</svg>
