<?xml version="1.0" encoding="utf-8"?>
<!-- Generator: Adobe Illustrator 23.0.1, SVG Export Plug-In . SVG Version: 6.00 Build 0)  -->
<svg version="1.0" id="레이어_1" xmlns="http://www.w3.org/2000/svg" xmlns:xlink="http://www.w3.org/1999/xlink" x="0px"
	 y="0px" viewBox="0 0 200 200" style="enable-background:new 0 0 200 200;" xml:space="preserve">
<style type="text/css">
	.st0{fill:#FFFFFF;}
	.st1{opacity:0.72;}
	.st2{fill:#339966;}
	.st3{fill:none;stroke:#000000;stroke-linecap:round;stroke-linejoin:round;stroke-miterlimit:10;}
</style>
<rect class="st0" width="200" height="200"/>
<g class="st1">
	<path class="st2" d="M94.44,38.62c0,0,9.446,0.41,18.142,11.35s10.174,27.878-3.44,50.081
		c-14.906,24.311-28.686,17.095-28.686,17.095s6.667,8.936,20.973,3.326c14.306-5.61,31.07-31.23,27.423-55.915
		C125.206,39.871,109.868,36.095,94.44,38.62z"/>
</g>
<path class="st3" d="M76.165,61.668c0,0,2.244-17.111,15.568-22.16s22.16,1.403,27.069,5.61c4.909,4.208,14.446,17.813,8.696,41.376
	c-5.75,23.563-26.924,33.821-29.379,34.987c-1.541,0.732-14.802,3.303-21.955-10.022"/>
<path class="st3" d="M91.733,86.774c0,0-0.701-5.189-4.208-4.909c-3.506,0.281-3.506,2.945-3.647,6.873
	c-0.14,3.927-2.665,6.171-2.665,6.171s-2.104,2.525,0.701,5.049c2.805,2.525,5.891-0.14,7.434-1.964
	c1.543-1.823,1.122-2.945,7.714-2.805c6.592,0.14,11.361-8.275,11.361-12.062c0-3.787,0.281-17.953-19.496-15.709"/>
<path class="st3" d="M94.44,76.255c0,0-10-9.537-7.476-20.197c2.525-10.659,14.587-11.361,19.355-9.537s28.332,20.582,2.104,54.472"
	/>
</svg>
