<?xml version="1.0" encoding="utf-8"?>
<!-- Generator: Adobe Illustrator 23.0.1, SVG Export Plug-In . SVG Version: 6.00 Build 0)  -->
<svg version="1.0" id="레이어_1" xmlns="http://www.w3.org/2000/svg" xmlns:xlink="http://www.w3.org/1999/xlink" x="0px"
	 y="0px" viewBox="0 0 200 200" style="enable-background:new 0 0 200 200;" xml:space="preserve">
<style type="text/css">
	.st0{fill:#FFFFFF;}
	.st1{fill:none;stroke:#000000;stroke-linecap:round;stroke-linejoin:round;stroke-miterlimit:10;}
	.st2{opacity:0.72;}
	.st3{fill:#339966;}
</style>
<rect class="st0" width="200" height="200"/>
<circle cx="128.918" cy="75.226" r="2.394"/>
<path class="st1" d="M129.622,81.063c0,0-2.741,2.673-3.115,4.974c-0.374,2.301,1.106,3.048,2.084,3.172
	c0.979,0.124,2.49-0.691,2.769-2.893C131.639,84.114,129.622,81.063,129.622,81.063z"/>
<path class="st1" d="M116.63,93.058c0,0,8.697-0.187,12.287,4.488"/>
<path class="st1" d="M115.257,45.932c-5.888,0-11.428,1.591-16.297,4.372c10.503,6.345,17.67,18.956,17.67,33.497
	s-7.167,27.152-17.67,33.497c4.869,2.781,10.409,4.372,16.297,4.372c19.324,0,34.99-16.955,34.99-37.869
	S134.581,45.932,115.257,45.932z"/>
<g class="st2">
	<ellipse class="st3" cx="89.102" cy="83.801" rx="27.528" ry="37.869"/>
</g>
<circle cx="94.956" cy="76.227" r="2.394"/>
<circle cx="73.039" cy="76.227" r="2.394"/>
<path class="st1" d="M73.039,91.188c0,0,2.287,7.27,10.515,7.083c8.228-0.187,11.402-6.335,11.402-6.335"/>
<ellipse class="st1" cx="83.997" cy="83.801" rx="33.076" ry="37.869"/>
</svg>
